#!OML:ASF H:\Dans Jumps\Project 1\Capture day 1\Session 1\subject.ASF
:FULLY-SPECIFIED
:DEGREES
583
root 0.570208 17.7085 -1.17065 6.3453 0.231041 -1.58603
lowerback -3.55346 -0.466373 0.588762
upperback 2.16963 -0.721459 1.69464
thorax 4.24591 -0.367796 1.36712
lowerneck -11.8551 0.321549 -2.07999
upperneck 37.4661 0.800084 0.701433
head 14.9994 0.140273 0.791983
rclavicle -5.36719e-015 5.96354e-015
rhumerus -26.7294 -16.8661 -78.9083
rradius 22.5063
rwrist 36.3524
rhand -20.8612 -26.9464
rfingers 7.12502
rthumb 5.50833 -56.8548
lclavicle -5.36719e-015 5.96354e-015
lhumerus -24.8097 -2.05986 89.2692
lradius 17.4447
lwrist 8.18857
lhand -24.1986 -6.33648
lfingers 7.12502
lthumb 2.28552 23.631
rfemur -11.6999 -1.96103 19.7891
rtibia 21.7374
rfoot -14.731 0.147362
rtoes 16.1067
lfemur -8.50691 7.7759 -18.4671
ltibia 18.4618
lfoot -11.885 6.60023
ltoes 3.91732
584
root 0.570883 17.7085 -1.17282 6.33995 0.232697 -1.59093
lowerback -3.55337 -0.469003 0.585457
upperback 2.17232 -0.724796 1.69347
thorax 4.24874 -0.369539 1.36752
lowerneck -11.8514 0.322237 -2.08063
upperneck 37.455 0.800119 0.703925
head 14.9931 0.140597 0.793004
rclavicle -3.97569e-016 7.95139e-016
rhumerus -26.7317 -16.8951 -78.8881
rradius 22.4956
rwrist 36.3501
rhand -20.8361 -26.9334
rfingers 7.12502
rthumb 5.53259 -56.8412
lclavicle -3.97569e-016 7.95139e-016
lhumerus -24.8131 -2.04907 89.2708
lradius 17.4428
lwrist 8.20548
lhand -24.1801 -6.32393
lfingers 7.12502
lthumb 2.30338 23.6434
rfemur -11.701 -1.9645 19.7922
rtibia 21.7358
rfoot -14.7272 0.146059
rtoes 16.1127
lfemur -8.51276 7.7785 -18.4647
ltibia 18.4679
lfoot -11.8837 6.59751
ltoes 3.91068
585
root 0.5715 17.7084 -1.1749 6.33457 0.233134 -1.59415
lowerback -3.55449 -0.47093 0.581112
upperback 2.17613 -0.727137 1.6912
thorax 4.2534 -0.370803 1.36744
lowerneck -11.8524 0.32345 -2.08069
upperneck 37.4456 0.80121 0.70574
head 14.9887 0.141342 0.793848
rclavicle 6.80837e-015 -1.98785e-015
rhumerus -26.7328 -16.9258 -78.869
rradius 22.4833
rwrist 36.3468
rhand -20.8124 -26.9227
rfingers 7.12502
rthumb 5.55546 -56.8299
lclavicle 6.80837e-015 -1.98785e-015
lhumerus -24.8146 -2.04684 89.2734
lradius 17.4389
lwrist 8.23928
lhand -24.1534 -6.30479
lfingers 7.12502
lthumb 2.32921 23.6622
rfemur -11.7014 -1.96734 19.7935
rtibia 21.733
rfoot -14.7222 0.143791
rtoes 16.1049
lfemur -8.51828 7.78124 -18.4637
ltibia 18.4748
lfoot -11.8826 6.59404
ltoes 3.91039
586
root 0.571996 17.7084 -1.17699 6.33031 0.234078 -1.59696
lowerback -3.55645 -0.47287 0.576331
upperback 2.17951 -0.729453 1.68834
thorax 4.25808 -0.372058 1.36699
lowerneck -11.855 0.325276 -2.0801
upperneck 37.4378 0.803115 0.707552
head 14.9855 0.142509 0.794728
rclavicle 4.87022e-015 3.97569e-015
rhumerus -26.737 -16.9572 -78.8509
rradius 22.4734
rwrist 36.3428
rhand -20.7841 -26.9195
rfingers 7.12502
rthumb 5.58279 -56.826
lclavicle 4.87022e-015 3.97569e-015
lhumerus -24.8161 -2.0521 89.2769
lradius 17.4327
lwrist 8.28357
lhand -24.122 -6.28261
lfingers 7.12502
lthumb 2.35956 23.6841
rfemur -11.7029 -1.96768 19.7949
rtibia 21.7291
rfoot -14.7158 0.137658
rtoes 16.0843
lfemur -8.52562 7.78276 -18.4626
ltibia 18.4827
lfoot -11.8812 6.5888
ltoes 3.91626
587
root 0.572382 17.7084 -1.17911 6.3265 0.237312 -1.6012
lowerback -3.55753 -0.474553 0.572816
upperback 2.1819 -0.731466 1.68562
thorax 4.26123 -0.373124 1.36599
lowerneck -11.8584 0.327478 -2.07532
upperneck 37.4317 0.806014 0.705267
head 14.9833 0.144129 0.793328
rclavicle -3.03147e-015 -1.07344e-014
rhumerus -26.7441 -16.995 -78.8312
rradius 22.4632
rwrist 36.3438
rhand -20.7565 -26.92
rfingers 7.12502
rthumb 5.60947 -56.8258
lclavicle -3.03147e-015 -1.07344e-014
lhumerus -24.8199 -2.06478 89.2816
lradius 17.4244
lwrist 8.33002
lhand -24.0951 -6.25968
lfingers 7.12502
lthumb 2.38553 23.7067
rfemur -11.7048 -1.96512 19.7986
rtibia 21.7248
rfoot -14.7084 0.126286
rtoes 16.0609
lfemur -8.53367 7.7818 -18.459
ltibia 18.4902
lfoot -11.8786 6.58235
ltoes 3.93119
588
root 0.572672 17.7084 -1.18122 6.32396 0.243543 -1.60482
lowerback -3.55901 -0.476259 0.56903
upperback 2.18228 -0.733438 1.68228
thorax 4.2625 -0.374163 1.36452
lowerneck -11.8595 0.329808 -2.06817
upperneck 37.4273 0.809148 0.701062
head 14.9814 0.145925 0.790743
rclavicle -3.77691e-015 1.11319e-014
rhumerus -26.7591 -17.0259 -78.8134
rradius 22.4605
rwrist 36.3352
rhand -20.7247 -26.9271
rfingers 7.12502
rthumb 5.64018 -56.832
lclavicle -3.77691e-015 1.11319e-014
lhumerus -24.8283 -2.07791 89.2857
lradius 17.4141
lwrist 8.36392
lhand -24.0775 -6.24161
lfingers 7.12502
lthumb 2.40249 23.7246
rfemur -11.7074 -1.96109 19.8022
rtibia 21.7207
rfoot -14.7009 0.110846
rtoes 16.0374
lfemur -8.54266 7.77824 -18.4555
ltibia 18.4961
lfoot -11.8766 6.57447
ltoes 3.94769
589
root 0.5729 17.7085 -1.18334 6.32309 0.251493 -1.60777
lowerback -3.56064 -0.478196 0.564298
upperback 2.18061 -0.735636 1.67905
thorax 4.26174 -0.375338 1.36366
lowerneck -11.8592 0.332497 -2.05813
upperneck 37.4238 0.813371 0.693186
head 14.9797 0.148096 0.786279
rclavicle -8.94531e-016 -1.59028e-015
rhumerus -26.7793 -17.0522 -78.7965
rradius 22.4625
rwrist 36.3223
rhand -20.6916 -26.9373
rfingers 7.12502
rthumb 5.67207 -56.8414
lclavicle -8.94531e-016 -1.59028e-015
lhumerus -24.8405 -2.08624 89.2887
lradius 17.4007
lwrist 8.38044
lhand -24.0688 -6.23445
lfingers 7.12502
lthumb 2.41092 23.7317
rfemur -11.7122 -1.95593 19.8056
rtibia 21.7175
rfoot -14.6934 0.0923074
rtoes 16.016
lfemur -8.55283 7.7719 -18.4527
ltibia 18.4995
lfoot -11.8743 6.56816
ltoes 3.96492
590
root 0.573085 17.7086 -1.18545 6.32237 0.263 -1.60998
lowerback -3.56125 -0.481034 0.559872
upperback 2.17749 -0.738996 1.67547
thorax 4.25892 -0.37707 1.3622
lowerneck -11.8548 0.334666 -2.04703
upperneck 37.4192 0.816977 0.683759
head 14.9765 0.149965 0.780846
rclavicle 8.44835e-016 -1.15295e-014
rhumerus -26.8055 -17.0699 -78.7818
rradius 22.4714
rwrist 36.3036
rhand -20.6584 -26.944
rfingers 7.12502
rthumb 5.70421 -56.8472
lclavicle 8.44835e-016 -1.15295e-014
lhumerus -24.8547 -2.08927 89.2904
lradius 17.3822
lwrist 8.37943
lhand -24.0719 -6.23494
lfingers 7.12502
lthumb 2.4079 23.7312
rfemur -11.7167 -1.95141 19.8085
rtibia 21.7153
rfoot -14.6876 0.0719728
rtoes 16.0009
lfemur -8.5625 7.76487 -18.4505
ltibia 18.5001
lfoot -11.8719 6.5611
ltoes 3.9717
591
root 0.573188 17.7087 -1.18764 6.32233 0.275695 -1.61151
lowerback -3.56122 -0.483885 0.554494
upperback 2.17436 -0.74233 1.67238
thorax 4.25574 -0.378825 1.36179
lowerneck -11.8514 0.335876 -2.03664
upperneck 37.4141 0.819845 0.67311
head 14.9732 0.151265 0.774915
rclavicle -4.47266e-016 -1.15295e-014
rhumerus -26.8321 -17.0794 -78.7698
rradius 22.4831
rwrist 36.2781
rhand -20.6247 -26.9507
rfingers 7.12502
rthumb 5.73673 -56.853
lclavicle -4.47266e-016 -1.15295e-014
lhumerus -24.8676 -2.07416 89.2884
lradius 17.3626
lwrist 8.35795
lhand -24.0678 -6.22116
lfingers 7.12502
lthumb 2.41187 23.745
rfemur -11.7217 -1.94525 19.8112
rtibia 21.7131
rfoot -14.6826 0.04866
rtoes 15.9862
lfemur -8.57307 7.75754 -18.4488
ltibia 18.5002
lfoot -11.8693 6.5553
ltoes 3.97477
592
root 0.573271 17.7087 -1.1898 6.32071 0.289928 -1.61305
lowerback -3.55991 -0.48749 0.549994
upperback 2.17221 -0.746725 1.66951
thorax 4.25286 -0.381088 1.36104
lowerneck -11.8457 0.337546 -2.02779
upperneck 37.4052 0.823625 0.662805
head 14.9677 0.152827 0.769498
rclavicle -2.98177e-016 -2.78299e-015
rhumerus -26.8608 -17.078 -78.7618
rradius 22.5015
rwrist 36.2429
rhand -20.5869 -26.9616
rfingers 7.12502
rthumb 5.77321 -56.8629
lclavicle -2.98177e-016 -2.78299e-015
lhumerus -24.8818 -2.05387 89.2862
lradius 17.3418
lwrist 8.324
lhand -24.0812 -6.2123
lfingers 7.12502
lthumb 2.39894 23.754
rfemur -11.7241 -1.94054 19.8137
rtibia 21.7104
rfoot -14.679 0.0261221
rtoes 15.978
lfemur -8.58223 7.75109 -18.447
ltibia 18.5014
lfoot -11.869 6.5492
ltoes 3.97175
593
root 0.573204 17.7087 -1.19202 6.31918 0.303072 -1.6193
lowerback -3.55754 -0.489792 0.550003
upperback 2.17103 -0.749674 1.66793
thorax 4.25033 -0.382524 1.3592
lowerneck -11.8414 0.33918 -2.02177
upperneck 37.3941 0.82712 0.655424
head 14.9613 0.154294 0.765759
rclavicle 6.11263e-015 -3.57812e-015
rhumerus -26.8904 -17.0642 -78.7589
rradius 22.5248
rwrist 36.1937
rhand -20.5569 -26.9721
rfingers 7.12502
rthumb 5.80215 -56.8727
lclavicle 6.11263e-015 -3.57812e-015
lhumerus -24.8979 -2.03283 89.2842
lradius 17.3247
lwrist 8.2845
lhand -24.1031 -6.20564
lfingers 7.12502
lthumb 2.37778 23.7609
rfemur -11.7261 -1.93078 19.822
rtibia 21.7061
rfoot -14.675 0.00101797
rtoes 15.9738
lfemur -8.5932 7.74684 -18.4395
ltibia 18.5061
lfoot -11.8706 6.54311
ltoes 3.96824
594
root 0.573079 17.7086 -1.19415 6.31622 0.313802 -1.62699
lowerback -3.55631 -0.490484 0.55165
upperback 2.17291 -0.750648 1.66662
thorax 4.25156 -0.382944 1.35686
lowerneck -11.8376 0.340735 -2.01889
upperneck 37.3782 0.830125 0.651448
head 14.9526 0.155636 0.763889
rclavicle 6.26172e-015 -1.11319e-014
rhumerus -26.918 -17.0412 -78.7605
rradius 22.5513
rwrist 36.1321
rhand -20.5339 -26.9796
rfingers 7.12502
rthumb 5.82434 -56.8796
lclavicle 6.26172e-015 -1.11319e-014
lhumerus -24.9153 -2.01258 89.2829
lradius 17.3129
lwrist 8.24167
lhand -24.1292 -6.1967
lfingers 7.12502
lthumb 2.35255 23.7701
rfemur -11.7255 -1.91741 19.8315
rtibia 21.7002
rfoot -14.6708 -0.0243627
rtoes 15.9678
lfemur -8.6037 7.74428 -18.4301
ltibia 18.5147
lfoot -11.8751 6.5383
ltoes 3.96316
595
root 0.572867 17.7084 -1.19636 6.31348 0.324306 -1.63829
lowerback -3.55557 -0.489659 0.557545
upperback 2.17645 -0.749879 1.66567
thorax 4.25472 -0.382384 1.35263
lowerneck -11.8325 0.34188 -2.01787
upperneck 37.3577 0.831758 0.650847
head 14.9415 0.156653 0.763504
rclavicle -4.62174e-015 1.39149e-014
rhumerus -26.945 -17.0167 -78.765
rradius 22.5801
rwrist 36.063
rhand -20.5139 -26.9922
rfingers 7.12502
rthumb 5.84369 -56.8917
lclavicle -4.62174e-015 1.39149e-014
lhumerus -24.933 -1.99594 89.2814
lradius 17.3048
lwrist 8.19919
lhand -24.1609 -6.19866
lfingers 7.12502
lthumb 2.32201 23.7684
rfemur -11.7253 -1.90282 19.8453
rtibia 21.6938
rfoot -14.6665 -0.050125
rtoes 15.9604
lfemur -8.61602 7.7412 -18.4164
ltibia 18.5261
lfoot -11.8808 6.53314
ltoes 3.97068
596
root 0.572579 17.7083 -1.19853 6.31029 0.333869 -1.64914
lowerback -3.55665 -0.487448 0.562764
upperback 2.18226 -0.74729 1.66468
thorax 4.26123 -0.380945 1.34886
lowerneck -11.8266 0.342639 -2.0187
upperneck 37.3324 0.832839 0.651564
head 14.9278 0.157425 0.763867
rclavicle 2.48481e-016 5.1684e-015
rhumerus -26.9721 -16.9923 -78.77
rradius 22.6101
rwrist 35.9913
rhand -20.5004 -26.9986
rfingers 7.12502
rthumb 5.85666 -56.8976
lclavicle 2.48481e-016 5.1684e-015
lhumerus -24.9503 -1.97927 89.2799
lradius 17.3004
lwrist 8.15886
lhand -24.1859 -6.20013
lfingers 7.12502
lthumb 2.29781 23.7672
rfemur -11.7254 -1.88699 19.8588
rtibia 21.6893
rfoot -14.664 -0.0758757
rtoes 15.9538
lfemur -8.62712 7.73821 -18.4028
ltibia 18.5363
lfoot -11.8862 6.52748
ltoes 3.98286
